Coordinates
version=1
nRows=41
nColumns=38
inDegrees=no

Units are S.I. units (second, meters, Newtons, ...)
If the header above contains a line with 'inDegrees', this indicates whether rotational values are in degrees (yes) or radians (no).

endheader
time	pelvis_tilt	pelvis_list	pelvis_rotation	pelvis_tx	pelvis_ty	pelvis_tz	hip_flexion_r	hip_adduction_r	hip_rotation_r	knee_angle_r	ankle_angle_r	subtalar_angle_r	mtp_angle_r	hip_flexion_l	hip_adduction_l	hip_rotation_l	knee_angle_l	ankle_angle_l	subtalar_angle_l	mtp_angle_l	lumbar_extension	lumbar_bending	lumbar_rotation	arm_flex_r	arm_add_r	arm_rot_r	elbow_flex_r	pro_sup_r	wrist_flex_r	wrist_dev_r	arm_flex_l	arm_add_l	arm_rot_l	elbow_flex_l	pro_sup_l	wrist_flex_l	wrist_dev_l
0	-2.7026	1.25137	-1.84684	0.789008	-0.594686	0.927219	-0.105797	-0.261788	-0.599844	0.682951	-0.0395044	0	0	0.0889123	0.267396	0.285362	1.45739	-0.0748043	0	0	-0.269552	-0.0362037	0.158119	-0.26343	-0.71587	-0.213546	1.68717	0.613568	0	0	0.72486	-0.585495	0.976028	1.19162	0.513205	0	0
0.01	-2.69217	1.25071	-1.86393	0.790021	-0.585201	0.927517	-0.117901	-0.26367	-0.598989	0.680261	-0.031593	0	0	0.11564	0.271999	0.268871	1.43788	-0.0714119	0	0	-0.265548	-0.0413702	0.166171	-0.258789	-0.716866	-0.210797	1.68331	0.61277	0	0	0.730613	-0.581692	0.98416	1.18339	0.509163	0	0
0.02	-2.68116	1.25111	-1.88134	0.791046	-0.574972	0.927897	-0.13122	-0.264518	-0.600655	0.673188	-0.0252575	0	0	0.139814	0.274249	0.251836	1.41042	-0.0703654	0	0	-0.262342	-0.0474921	0.173077	-0.256749	-0.715431	-0.21008	1.6816	0.613909	0	0	0.730377	-0.583462	0.983788	1.18544	0.507152	0	0
0.03	-2.67492	1.24943	-1.89375	0.792049	-0.564908	0.928324	-0.147418	-0.26424	-0.602869	0.664587	-0.0204903	0	0	0.158905	0.274327	0.236021	1.37641	-0.0708596	0	0	-0.262501	-0.0521055	0.180836	-0.256159	-0.714937	-0.211438	1.68162	0.614332	0	0	0.73307	-0.584298	0.986423	1.18655	0.50397	0	0
0.04	-2.6723	1.24863	-1.90177	0.792834	-0.554953	0.928754	-0.163653	-0.261671	-0.603889	0.653443	-0.0185117	0	0	0.176071	0.272742	0.221882	1.33675	-0.0735909	0	0	-0.260231	-0.0516459	0.194161	-0.265653	-0.716049	-0.221835	1.68625	0.611413	0	0	0.744141	-0.573032	1.00246	1.17041	0.497103	0	0
0.05	-2.78498	1.2169	-1.82872	0.799078	-0.541244	0.931761	-0.234917	-0.214186	-0.572988	0.591299	-0.0221551	0	0	0.183013	0.0108663	-0.25188	1.32352	-0.201561	0	0	-0.297742	-0.0350152	0.235015	-0.27151	-0.723676	-0.225143	1.69627	0.603645	0	0	0.74833	-0.580677	1.00833	1.18293	0.49487	0	0
0.06	-2.78248	1.21539	-1.83467	0.799692	-0.5313	0.931727	-0.252288	-0.212616	-0.574502	0.582005	-0.0166829	0	0	0.193677	0.0130292	-0.264058	1.27971	-0.210837	0	0	-0.300364	-0.039358	0.235742	-0.265069	-0.723955	-0.221773	1.69614	0.606635	0	0	0.745591	-0.589204	1.00201	1.19527	0.49928	0	0
0.07	-2.77856	1.21763	-1.84042	0.799973	-0.521245	0.931376	-0.265653	-0.210367	-0.575435	0.574042	-0.0111048	0	0	0.206788	0.0153866	-0.274276	1.23218	-0.219103	0	0	-0.297195	-0.0404318	0.238636	-0.264145	-0.722479	-0.22378	1.697	0.61278	0	0	0.745715	-0.589479	1.00193	1.19605	0.500876	0	0
0.08	-2.77767	1.21995	-1.84213	0.800018	-0.511262	0.931099	-0.280709	-0.206381	-0.577834	0.563042	-0.0068987	0	0	0.217136	0.0159997	-0.287309	1.18032	-0.236439	0	0	-0.292945	-0.0372995	0.244974	-0.270039	-0.726378	-0.228449	1.70058	0.604925	0	0	0.752298	-0.581543	1.0125	1.18508	0.489426	0	0
0.09	-2.77671	1.22003	-1.84278	0.800057	-0.501414	0.930526	-0.297394	-0.204065	-0.584162	0.555873	-0.00204126	0	0	0.222577	0.0162148	-0.30399	1.12745	-0.244911	0	0	-0.294582	-0.0399971	0.240384	-0.260407	-0.72746	-0.221652	1.69911	0.60553	0	0	0.747659	-0.591508	1.00319	1.1992	0.494165	0	0
0.1	-2.77587	1.22256	-1.84346	0.799977	-0.491435	0.929726	-0.311099	-0.200935	-0.588139	0.548547	0.00246613	0	0	0.227378	0.0138699	-0.327539	1.07247	-0.252085	0	0	-0.291909	-0.0392322	0.240489	-0.257946	-0.727807	-0.221481	1.69995	0.606506	0	0	0.747582	-0.593307	1.00242	1.20137	0.494717	0	0
0.11	-2.77503	1.22538	-1.84364	0.799792	-0.481502	0.928765	-0.324406	-0.19767	-0.592343	0.541334	0.0072273	0	0	0.229447	0.0105893	-0.355769	1.01482	-0.255828	0	0	-0.289287	-0.0382002	0.240051	-0.255475	-0.728207	-0.221501	1.70099	0.6077	0	0	0.747446	-0.595136	1.00124	1.20374	0.494803	0	0
0.12	-2.7712	1.2296	-1.84534	0.799379	-0.471532	0.927552	-0.335786	-0.195515	-0.598941	0.536518	0.00838656	0	0	0.230271	0.00994634	-0.381974	0.952689	-0.251741	0	0	-0.284743	-0.0376143	0.238295	-0.25329	-0.728869	-0.22085	1.70146	0.60683	0	0	0.747613	-0.59613	1.00056	1.20494	0.494597	0	0
0.13	-2.76701	1.23293	-1.8469	0.798866	-0.461619	0.926341	-0.348169	-0.193168	-0.604162	0.530413	0.0133888	0	0	0.227007	0.011938	-0.406828	0.884402	-0.251216	0	0	-0.281381	-0.0374105	0.236176	-0.251247	-0.728164	-0.221652	1.70194	0.608346	0	0	0.748538	-0.596932	1.00026	1.20603	0.49472	0	0
0.14	-2.64612	1.2762	-1.92099	0.793624	-0.456647	0.921795	-0.29606	-0.219559	-0.64543	0.578364	0.0359494	0	0	0.200547	0.256154	0.257332	0.669264	-0.111113	0	0	-0.236199	-0.0528556	0.188953	-0.23597	-0.712598	-0.218276	1.69092	0.626665	0	0	0.747524	-0.596888	0.992456	1.20092	0.503954	0	0
0.15	-2.64916	1.28129	-1.91561	0.793397	-0.446306	0.920287	-0.30783	-0.212478	-0.650292	0.572273	0.0420265	0	0	0.192323	0.24432	0.239023	0.579739	-0.11816	0	0	-0.230699	-0.0502713	0.187623	-0.234495	-0.710315	-0.219028	1.69074	0.629914	0	0	0.748303	-0.597826	0.992956	1.2012	0.505172	0	0
0.16	-2.74275	1.25537	-1.85407	0.79585	-0.431686	0.921184	-0.369826	-0.186807	-0.627319	0.525111	0.0325389	0	0	0.219313	0.0526543	-0.386508	0.646404	-0.233624	0	0	-0.254421	-0.0317335	0.22747	-0.254447	-0.720163	-0.233652	1.70356	0.620777	0	0	0.756124	-0.58693	1.00962	1.1906	0.491799	0	0
0.17	-2.66828	1.2894	-1.8948	0.792841	-0.424848	0.917448	-0.336546	-0.193797	-0.652341	0.551876	0.0481534	0	0	0.170085	0.215839	0.164929	0.399228	-0.165184	0	0	-0.219	-0.0388956	0.195078	-0.243483	-0.702582	-0.233415	1.69384	0.643036	0	0	0.7555	-0.58497	1.00307	1.18289	0.500764	0	0
0.18	-2.6817	1.28843	-1.88164	0.792564	-0.41402	0.916286	-0.356229	-0.186892	-0.655794	0.541854	0.0434022	0	0	0.15124	0.204255	0.118013	0.311942	-0.200499	0	0	-0.219715	-0.0358962	0.195375	-0.241757	-0.704636	-0.230887	1.69361	0.63654	0	0	0.756735	-0.585958	1.00393	1.18376	0.496859	0	0
0.19	-2.68361	1.28847	-1.87887	0.791937	-0.403123	0.91462	-0.366565	-0.187386	-0.660806	0.552635	0.0477588	0	0	0.134961	0.199522	0.0800122	0.236651	-0.217653	0	0	-0.220258	-0.0389061	0.187215	-0.229491	-0.704444	-0.219517	1.68927	0.638273	0	0	0.749239	-0.600006	0.991954	1.20217	0.505953	0	0
0.2	-2.69111	1.29025	-1.87218	0.791333	-0.391774	0.913377	-0.385671	-0.181796	-0.66297	0.534994	0.0425898	0	0	0.115714	0.193988	0.0414059	0.156298	-0.263529	0	0	-0.213811	-0.0328849	0.195446	-0.239855	-0.701554	-0.229835	1.692	0.642378	0	0	0.756778	-0.586894	1.0048	1.18309	0.500986	0	0
0.21	-2.68658	1.29229	-1.8757	0.790385	-0.380637	0.911306	-0.388228	-0.185683	-0.663597	0.558248	0.0479037	0	0	0.101821	0.195071	0.0194059	0.0999359	-0.271553	0	0	-0.211173	-0.0367716	0.187309	-0.228657	-0.700747	-0.218508	1.68705	0.644929	0	0	0.750004	-0.601053	0.99479	1.20134	0.508202	0	0
0.22	-2.69646	1.29846	-1.86699	0.789692	-0.36911	0.909562	-0.401163	-0.179589	-0.661518	0.545655	0.0442893	0	0	0.0910615	0.190661	0.00196051	0.0561252	-0.283175	0	0	-0.200058	-0.0287058	0.195956	-0.240066	-0.698285	-0.228344	1.68975	0.647668	0	0	0.75714	-0.587571	1.00802	1.18183	0.501709	0	0
0.23	-2.70069	1.29961	-1.86503	0.789024	-0.357735	0.907859	-0.410008	-0.180278	-0.656437	0.553546	0.0420771	0	0	0.0791177	0.190625	-0.01327	0.0337764	-0.289793	0	0	-0.196605	-0.0276188	0.198141	-0.240933	-0.697684	-0.228339	1.6904	0.646294	0	0	0.758845	-0.588493	1.01113	1.18195	0.499238	0	0
0.24	-2.69349	1.2993	-1.87491	0.788224	-0.346487	0.906025	-0.406699	-0.187841	-0.64287	0.588756	0.0420736	0	0	0.0723078	0.195613	-0.0215871	0.0402264	-0.282361	0	0	-0.197318	-0.0337454	0.193622	-0.232513	-0.696593	-0.22067	1.68921	0.644189	0	0	0.753487	-0.603647	1.00214	1.20214	0.503366	0	0
0.25	-2.69804	1.30022	-1.87252	0.787613	-0.334803	0.904901	-0.426518	-0.184662	-0.637097	0.567173	0.0353842	0	0	0.0660554	0.196493	-0.0214742	0.0599895	-0.281975	0	0	-0.192623	-0.0299508	0.202283	-0.244361	-0.693584	-0.231115	1.69375	0.643598	0	0	0.761493	-0.592951	1.01481	1.18653	0.497248	0	0
0.26	-2.68605	1.29663	-1.88642	0.786702	-0.323439	0.90355	-0.428266	-0.193058	-0.619396	0.594528	0.0295004	0	0	0.0583612	0.204989	-0.0152866	0.0889072	-0.271558	0	0	-0.196567	-0.038414	0.198043	-0.238253	-0.691689	-0.225551	1.69296	0.643019	0	0	0.759444	-0.606981	1.00991	1.2052	0.500081	0	0
0.27	-2.67745	1.29434	-1.89519	0.785701	-0.311586	0.902567	-0.44528	-0.197056	-0.612263	0.585624	0.0133776	0	0	0.0505336	0.211948	-0.00587389	0.113384	-0.255831	0	0	-0.196132	-0.0423978	0.198461	-0.241956	-0.686107	-0.229561	1.69439	0.648896	0	0	0.7629	-0.608959	1.01523	1.20639	0.501441	0	0
0.28	-2.66086	1.2938	-1.91255	0.784391	-0.299529	0.901671	-0.450074	-0.204675	-0.595666	0.597011	0.00324808	0	0	0.0435469	0.220544	-0.00109237	0.119657	-0.264808	0	0	-0.190963	-0.0453709	0.203731	-0.252989	-0.683497	-0.23702	1.69801	0.646779	0	0	0.769564	-0.602072	1.02779	1.19574	0.495595	0	0
0.29	-2.64684	1.29044	-1.92738	0.783268	-0.287742	0.90108	-0.455598	-0.2129	-0.574806	0.612455	-0.0117654	0	0	0.0343904	0.227711	-0.000306349	0.119039	-0.286119	0	0	-0.192877	-0.0537809	0.200751	-0.251551	-0.680206	-0.234262	1.69705	0.646482	0	0	0.7686	-0.611151	1.02667	1.20737	0.496135	0	0
0.3	-2.62817	1.29042	-1.94588	0.781914	-0.275841	0.900526	-0.45559	-0.22176	-0.548426	0.629474	-0.0336448	0	0	0.0284749	0.233805	-0.0013408	0.113442	-0.322049	0	0	-0.188947	-0.0597705	0.200653	-0.256064	-0.677017	-0.23562	1.69742	0.647082	0	0	0.769502	-0.611903	1.03013	1.20717	0.496175	0	0
0.31	-2.60783	1.29188	-1.96544	0.780288	-0.263917	0.900052	-0.452539	-0.232362	-0.515203	0.648791	-0.082954	0	0	0.0237469	0.239373	-0.00469542	0.105446	-0.371704	0	0	-0.183056	-0.0651282	0.200472	-0.261537	-0.672521	-0.238365	1.69729	0.651395	0	0	0.769501	-0.611294	1.03327	1.20571	0.496615	0	0
0.32	-2.59027	1.29448	-1.98141	0.77846	-0.252242	0.899672	-0.443425	-0.244096	-0.480879	0.677795	-0.118412	0	0	0.0241804	0.243854	-0.00373625	0.113387	-0.387276	0	0	-0.176872	-0.0686282	0.199283	-0.266516	-0.66974	-0.240019	1.69694	0.653299	0	0	0.768448	-0.610216	1.03474	1.20427	0.497608	0	0
0.33	-2.57591	1.29468	-1.99352	0.776593	-0.240706	0.899738	-0.431984	-0.257938	-0.453958	0.715878	-0.135689	0	0	0.0227575	0.248368	0.00173428	0.127767	-0.395034	0	0	-0.173952	-0.0721046	0.197126	-0.270974	-0.6683	-0.240908	1.6968	0.652116	0	0	0.767768	-0.609316	1.03623	1.20324	0.498688	0	0
0.34	-2.55768	1.29612	-2.00782	0.774499	-0.229358	0.899985	-0.4133	-0.274555	-0.433327	0.761848	-0.205282	0	0	0.0259277	0.254425	0.0191331	0.157146	-0.379362	0	0	-0.169386	-0.0757148	0.193453	-0.274938	-0.664802	-0.242633	1.69535	0.655951	0	0	0.766077	-0.607459	1.03684	1.20091	0.501445	0	0
0.35	-2.53933	1.29477	-2.02237	0.772486	-0.218329	0.900642	-0.39262	-0.293872	-0.414782	0.812988	-0.263022	0	0	0.0257369	0.26249	0.0410487	0.187071	-0.361823	0	0	-0.168214	-0.0805776	0.189864	-0.278105	-0.662358	-0.244006	1.69392	0.657423	0	0	0.76571	-0.605321	1.0382	1.19816	0.502646	0	0
0.36	-2.51925	1.29239	-2.03934	0.77066	-0.207548	0.901441	-0.367355	-0.315175	-0.396167	0.8685	-0.318044	0	0	0.0237007	0.272168	0.0648339	0.214385	-0.340533	0	0	-0.168213	-0.0866699	0.187081	-0.280849	-0.659134	-0.246318	1.69254	0.660646	0	0	0.766224	-0.603232	1.03994	1.19544	0.504662	0	0
0.37	-2.50513	1.28814	-2.05207	0.769106	-0.196986	0.902489	-0.34015	-0.335948	-0.377129	0.922112	-0.415113	0	0	0.0171347	0.281067	0.0839485	0.235125	-0.323635	0	0	-0.171062	-0.0923103	0.185976	-0.283331	-0.659365	-0.247061	1.69172	0.656473	0	0	0.768748	-0.601368	1.04425	1.19349	0.500903	0	0
0.38	-2.49367	1.28382	-2.06379	0.767825	-0.186518	0.903562	-0.308951	-0.355934	-0.357875	0.977665	-0.487834	0	0	0.00792063	0.288764	0.0977294	0.250424	-0.30646	0	0	-0.174198	-0.0975554	0.186501	-0.285478	-0.658832	-0.248666	1.69106	0.655714	0	0	0.771415	-0.599602	1.04837	1.19192	0.49931	0	0
0.39	-2.48183	1.28043	-2.07752	0.766683	-0.175897	0.90465	-0.274394	-0.375162	-0.337213	1.03355	-0.543401	0	0	-0.00380167	0.295115	0.103006	0.257828	-0.293158	0	0	-0.175819	-0.102485	0.1884	-0.288006	-0.658617	-0.249983	1.69061	0.654824	0	0	0.772314	-0.598381	1.05097	1.19126	0.497999	0	0
0.4	-2.48271	1.27209	-2.08049	0.765796	-0.165799	0.906078	-0.244364	-0.392679	-0.315543	1.08761	-0.582646	0	0	-0.0248345	0.299623	0.102183	0.257421	-0.28377	0	0	-0.184743	-0.106429	0.190577	-0.287294	-0.660914	-0.249832	1.69074	0.652648	0	0	0.774675	-0.597889	1.05278	1.19134	0.496547	0	0
